<svg xmlns="http://www.w3.org/2000/svg" width="48" height="48" viewBox="0 0 48 48">
  <circle cx="24" cy="24" r="24" fill="#0a0a1a"/>
  <circle cx="24" cy="24" r="22" fill="none" stroke="#c9a96e" stroke-width="1" opacity="0.4"/>
  <!-- Burj Khalifa silhouette -->
  <path d="M24 6 L24.8 14 L26 20 L27 26 L27.5 32 L28 38 L28.5 42 L19.5 42 L20 38 L20.5 32 L21 26 L22 20 L23.2 14 Z" fill="#c9a96e" opacity="0.9"/>
  <!-- Tower details -->
  <line x1="24" y1="6" x2="24" y2="42" stroke="#0a0a1a" stroke-width="0.5" opacity="0.3"/>
  <!-- Side fins -->
  <path d="M22.5 24 L18 34 L20 38 L20.5 32 L21 26 Z" fill="#c9a96e" opacity="0.7"/>
  <path d="M25.5 24 L30 34 L28 38 L27.5 32 L27 26 Z" fill="#c9a96e" opacity="0.7"/>
  <!-- Spire tip glow -->
  <circle cx="24" cy="6" r="1.5" fill="#c9a96e" opacity="0.6"/>
  <circle cx="24" cy="6" r="0.8" fill="#fff" opacity="0.8"/>
</svg>
